<svg width="28" height="28" viewBox="0 0 28 28" fill="none" xmlns="http://www.w3.org/2000/svg">
<g clip-path="url(#clip0_602_29652)">
<path d="M22.1642 14.4151V16.3971C22.1642 20.8559 18.5495 24.4704 14.0909 24.4704C9.63203 24.4704 6.01748 20.8559 6.01748 16.3971V14.4151L13.3513 17.883C13.8195 18.1044 14.3622 18.1044 14.8305 17.883L22.1642 14.4151ZM14.8305 3.37796L25.3031 8.33014C26.1491 8.73018 26.2561 9.83215 25.6242 10.4097V15.2438C25.6242 15.8807 25.1077 16.3971 24.4709 16.3971C23.8339 16.3971 23.3175 15.8807 23.3175 15.2438V11.5629L14.8305 15.5761C14.3622 15.7976 13.8195 15.7976 13.3513 15.5761L2.87868 10.6239C1.91021 10.166 1.91025 8.78808 2.87868 8.33014L13.3513 3.37796C13.8195 3.15657 14.3622 3.15657 14.8305 3.37796Z" fill="#615D5D"/>
</g>
<defs>
<clipPath id="clip0_602_29652">
<rect width="27.68" height="27.68" fill="white" transform="translate(0.25 0.25)"/>
</clipPath>
</defs>
</svg>
