<svg width="18" height="19" viewBox="0 0 18 19" fill="none" xmlns="http://www.w3.org/2000/svg">
<g clip-path="url(#clip0_318_294)">
<mask id="mask0_318_294" style="mask-type:luminance" maskUnits="userSpaceOnUse" x="0" y="0" width="18" height="19">
<path d="M18 18.0352H0V0.0351562H18V18.0352Z" fill="white"/>
</mask>
<g mask="url(#mask0_318_294)">
<path d="M1.28033 14.0655C0.987435 14.3584 0.512563 14.3584 0.21967 14.0655C-0.0732233 13.7726 -0.0732233 13.2977 0.21967 13.0048L5.84467 7.37983C6.13757 7.08696 6.61244 7.08696 6.90533 7.37983L10.125 10.5995L15.4394 5.28516H12.75C12.3358 5.28516 12 4.94938 12 4.53516C12 4.12093 12.3358 3.78516 12.75 3.78516H17.2495H17.2523C17.3531 3.78546 17.4493 3.80563 17.5371 3.84208C17.6255 3.87868 17.7084 3.93291 17.7803 4.00483C17.9177 4.14216 17.9905 4.31938 17.9992 4.49916C17.9997 4.51116 18 4.52316 18 4.53516V9.03516C18 9.44938 17.6642 9.78516 17.25 9.78516C16.8358 9.78516 16.5 9.44938 16.5 9.03516V6.34581L10.6553 12.1905C10.3624 12.4834 9.88755 12.4834 9.59468 12.1905L6.375 8.97081L1.28033 14.0655Z" fill="white"/>
</g>
</g>
<defs>
<clipPath id="clip0_318_294">
<rect width="18" height="18" fill="white" transform="matrix(1 0 0 -1 0 18.0352)"/>
</clipPath>
</defs>
</svg>
